<svg width="16" height="17" viewBox="0 0 16 17" fill="none" xmlns="http://www.w3.org/2000/svg">
<path d="M7.22062 9.33355L7.03062 3.96355C7.17062 3.91689 7.32395 3.89355 7.49062 3.89355C7.66395 3.89355 7.82395 3.91689 7.97062 3.96355L7.81062 9.33355H7.22062ZM7.11062 11.1136C7.21729 11.2202 7.34395 11.2736 7.49062 11.2736C7.64395 11.2736 7.77062 11.2202 7.87062 11.1136C7.97729 11.0069 8.03062 10.8802 8.03062 10.7336C8.03062 10.5802 7.97729 10.4536 7.87062 10.3536C7.77062 10.2469 7.64395 10.1936 7.49062 10.1936C7.34395 10.1936 7.21729 10.2469 7.11062 10.3536C7.00395 10.4536 6.95062 10.5802 6.95062 10.7336C6.95062 10.8802 7.00395 11.0069 7.11062 11.1136Z" fill="#CBAC9A"/>
<circle cx="7.57082" cy="7.57109" r="7" transform="rotate(-0.543586 7.57082 7.57109)" stroke="#CBAC9A"/>
</svg>
