<svg width="20" height="21" viewBox="0 0 20 21" fill="none" xmlns="http://www.w3.org/2000/svg">
<path d="M17.5 0H2.5C1.11937 0 0 1.56712 0 3.5V17.5C0 19.4329 1.11937 21 2.5 21H17.5C18.8806 21 20 19.4329 20 17.5V3.5C20 1.56712 18.8806 0 17.5 0ZM13.385 9.33959L18.6768 2.99069C18.7134 3.15476 18.75 3.31882 18.75 3.5V17.5C18.75 17.6214 18.717 17.729 18.7 17.8435L13.385 9.33959ZM17.5 1.75C17.583 1.75 17.6562 1.79446 17.7344 1.81666L10 11.0982L2.26562 1.81666C2.34375 1.79446 2.41699 1.75 2.5 1.75H17.5ZM1.29945 17.8418C1.28234 17.7273 1.25 17.6214 1.25 17.5V3.5C1.25 3.31882 1.28723 3.15476 1.32387 2.99069L6.61379 9.33789L1.29945 17.8418ZM2.5 19.25C2.37367 19.25 2.25891 19.1987 2.14355 19.1492L7.56348 10.4777L9.59352 12.913C9.71008 13.0549 9.85535 13.125 10 13.125C10.1446 13.125 10.2899 13.0549 10.4065 12.9131L12.4365 10.4778L17.8564 19.1492C17.7417 19.1987 17.627 19.25 17.5 19.25H2.5Z" fill="white"/>
</svg>
