<svg width="14" height="14" viewBox="0 0 14 14" fill="none" xmlns="http://www.w3.org/2000/svg">
<path d="M1.75 0H12.25C13.2164 0 14 1.04475 14 2.33333V11.6667C14 12.9552 13.2164 14 12.25 14H1.75C0.783563 14 0 12.9552 0 11.6667V2.33333C0 1.04475 0.783563 0 1.75 0ZM4.6305 6.22639L0.92627 1.9938C0.900621 2.10317 0.875 2.21255 0.875 2.33333V11.6667C0.875 11.7476 0.898078 11.8194 0.910028 11.8957L4.6305 6.22639ZM1.75 1.16667C1.69189 1.16667 1.64062 1.19631 1.58594 1.21111L7 7.39878L12.4141 1.21111C12.3594 1.19631 12.3081 1.16667 12.25 1.16667H1.75ZM13.0904 11.8945C13.1024 11.8182 13.125 11.7476 13.125 11.6667V2.33333C13.125 2.21255 13.0989 2.10317 13.0733 1.9938L9.37035 6.22526L13.0904 11.8945ZM12.25 12.8333C12.3384 12.8333 12.4188 12.7991 12.4995 12.7661L8.70557 6.98516L7.28454 8.60869C7.20295 8.7033 7.10125 8.75 7 8.75C6.89875 8.75 6.79705 8.7033 6.71546 8.60872L5.29443 6.9852L1.50049 12.7661C1.5808 12.7991 1.66113 12.8333 1.75 12.8333H12.25Z" fill="#CCAEA0"/>
</svg>
