<svg width="50" height="50" viewBox="0 0 50 50" fill="none" xmlns="http://www.w3.org/2000/svg">
<circle cx="25" cy="25" r="24.5" stroke="#241C10"/>
<path d="M26.0914 34.3601C25.9983 34.3638 25.9388 34.3713 25.8793 34.3713C24.6067 34.3713 23.3378 34.3676 22.0653 34.375C21.8867 34.375 21.8383 34.3266 21.8383 34.148C21.842 31.1861 21.842 28.2205 21.842 25.2586C21.842 25.1805 21.842 25.1023 21.842 25.0019C21.1499 25.0019 20.4764 25.0019 19.7917 25.0019C19.7917 23.9451 19.7917 22.907 19.7917 21.839C19.8624 21.839 19.9294 21.839 19.9927 21.839C20.5508 21.839 21.109 21.8353 21.6671 21.8428C21.8085 21.8428 21.8457 21.8018 21.8457 21.6642C21.8383 20.8344 21.8383 20.0009 21.8457 19.1711C21.8494 18.5906 21.9425 18.025 22.2104 17.5004C22.5936 16.7599 23.2002 16.2799 23.9667 15.9822C24.5918 15.7366 25.2504 15.6473 25.9128 15.6362C26.9918 15.6213 28.0709 15.6287 29.15 15.625C29.2505 15.625 29.3323 15.6213 29.3323 15.7627C29.3286 16.786 29.3286 17.8092 29.3286 18.8325C29.3286 18.8437 29.3249 18.8548 29.31 18.9032C29.2467 18.9032 29.176 18.9032 29.1053 18.9032C28.4356 18.9032 27.7658 18.8995 27.096 18.9032C26.709 18.9032 26.3965 19.0595 26.1993 19.3981C26.1397 19.4985 26.1025 19.6288 26.1025 19.7478C26.0914 20.3804 26.1025 21.013 26.0951 21.6455C26.0951 21.7944 26.1397 21.8353 26.2848 21.8353C27.2151 21.8279 28.1453 21.8316 29.0756 21.8316C29.15 21.8316 29.2207 21.8316 29.3472 21.8316C29.217 22.8958 29.0905 23.9377 28.9602 24.9907C27.9928 24.9907 27.0514 24.9907 26.0914 24.9907C26.0914 28.12 26.0914 31.2308 26.0914 34.3601Z" fill="#241C10"/>
</svg>
