<svg width="45" height="39" viewBox="0 0 45 39" fill="none" xmlns="http://www.w3.org/2000/svg">
<path d="M15.8025 0C7.08375 0 2.3325 7.77938 2.3325 13.1213C2.3325 17.4225 6.4575 19.3069 10.3012 19.3069L10.29 19.2956C18.2475 19.2956 23.76 12.0694 23.76 6.17437C23.76 1.88062 19.6819 0 15.8025 0ZM37.0425 0C28.3238 0 23.5725 7.77938 23.5725 13.1213C23.5725 17.4225 27.6975 19.3069 31.5413 19.3069L31.53 19.2956C39.4894 19.2938 45 12.0694 45 6.17437C45 1.88062 40.9125 0 37.0425 0ZM26.5725 24.0938L31.1381 27.5325C27.0694 31.4137 19.6556 34.1419 13.6013 33.4762C10.7955 33.1584 8.11597 32.1347 5.81292 30.5009C3.50987 28.867 1.65837 26.6763 0.43125 24.1331H0C0.756958 28.0493 2.79346 31.603 5.78956 34.2359C8.78566 36.8689 12.5716 38.4319 16.5525 38.6794C23.7038 39.1294 30.2831 36.9825 35.2031 32.8106L35.1956 32.8237L37.2206 38.4263L40.1362 24.1331L26.5725 24.0938Z" fill="white"/>
</svg>
