<svg width="51" height="51" viewBox="0 0 51 51" fill="none" xmlns="http://www.w3.org/2000/svg">
<circle cx="25.5" cy="25.5" r="25" stroke="#241C10"/>
<path d="M26.3224 21.4902C23.6657 21.4902 21.49 23.666 21.49 26.3227C21.49 28.9793 23.6657 31.1551 26.3224 31.1551C28.9791 31.1551 31.1319 28.9793 31.1319 26.3227C31.1319 23.666 28.9562 21.4902 26.3224 21.4902ZM26.3224 30.01C24.2841 30.01 22.6351 28.361 22.6351 26.3227C22.6351 24.2843 24.2841 22.6354 26.3224 22.6354C28.3378 22.6354 29.9868 24.2843 29.9868 26.3227C29.9868 28.361 28.3378 30.01 26.3224 30.01Z" fill="black"/>
<path d="M31.7045 18.7656C31.2007 18.7656 30.7426 18.9488 30.3991 19.2924C30.0555 19.6359 29.8723 20.094 29.8723 20.5978C29.8723 21.1017 30.0555 21.5597 30.3991 21.9033C30.7426 22.2468 31.2007 22.43 31.7045 22.43C32.2084 22.43 32.6664 22.2468 33.01 21.9033C33.3306 21.5826 33.5367 21.1246 33.5596 20.6207V20.5978C33.5596 20.1169 33.3535 19.6588 33.0329 19.3382C32.6893 18.9717 32.2084 18.7656 31.7045 18.7656ZM32.1855 21.0788C31.9335 21.3307 31.4526 21.3307 31.2007 21.0788C31.0632 20.9414 30.9945 20.781 30.9945 20.5978C30.9945 20.4146 31.0632 20.2314 31.2007 20.1169C31.3381 19.9795 31.4984 19.9107 31.6816 19.9107C31.8648 19.9107 32.048 19.9795 32.1855 20.1169C32.3 20.2314 32.3916 20.4146 32.3916 20.5749C32.3916 20.781 32.3229 20.9643 32.1855 21.0788Z" fill="black"/>
<path d="M30.3304 16.4521H22.2917C19.0624 16.4521 16.4515 19.063 16.4515 22.2923V30.354C16.4515 33.5832 19.0624 36.1941 22.2917 36.1941H30.3533C33.5826 36.1941 36.1935 33.5832 36.1935 30.354V22.2923C36.1706 19.063 33.5597 16.4521 30.3304 16.4521ZM35.0254 30.354C35.0254 32.9419 32.9184 35.049 30.3304 35.049H22.2917C19.7037 35.049 17.5967 32.9419 17.5967 30.354V22.2923C17.5967 19.7043 19.7037 17.5973 22.2917 17.5973H30.3533C32.9413 17.5973 35.0484 19.7043 35.0484 22.2923V30.354H35.0254Z" fill="black"/>
</svg>
