<svg width="30" height="27" viewBox="0 0 30 27" fill="none" xmlns="http://www.w3.org/2000/svg">
<path d="M14.8511 6.76367C10.854 6.76367 7.58057 9.6842 7.58057 13.2503C7.58057 16.8165 10.854 19.737 14.8511 19.737C18.8481 19.737 22.0871 16.8165 22.0871 13.2503C22.0871 9.6842 18.8137 6.76367 14.8511 6.76367ZM14.8511 18.1999C11.7844 18.1999 9.30344 15.9864 9.30344 13.2503C9.30344 10.5143 11.7844 8.30079 14.8511 8.30079C17.8833 8.30079 20.3643 10.5143 20.3643 13.2503C20.3643 15.9864 17.8833 18.1999 14.8511 18.1999Z" fill="#0B3222"/>
<path d="M22.9487 3.10449C22.1907 3.10449 21.5015 3.35043 20.9847 3.81157C20.4678 4.27271 20.1921 4.88755 20.1921 5.56389C20.1921 6.24022 20.4678 6.85507 20.9847 7.31621C21.5015 7.77735 22.1907 8.02328 22.9487 8.02328C23.7068 8.02328 24.3959 7.77735 24.9128 7.31621C25.3952 6.88581 25.7053 6.27097 25.7398 5.59463V5.56389C25.7398 4.9183 25.4297 4.30345 24.9473 3.87305C24.4304 3.38117 23.7068 3.10449 22.9487 3.10449ZM23.6723 6.20948C23.2933 6.54765 22.5697 6.54765 22.1907 6.20948C21.9839 6.02503 21.8805 5.80983 21.8805 5.56389C21.8805 5.31795 21.9839 5.07201 22.1907 4.9183C22.3974 4.73384 22.6386 4.64162 22.9143 4.64162C23.1899 4.64162 23.4656 4.73384 23.6723 4.9183C23.8446 5.07201 23.9825 5.31795 23.9825 5.53315C23.9825 5.80983 23.8791 6.05577 23.6723 6.20948Z" fill="#0B3222"/>
<path d="M20.8812 0H8.78664C3.92814 0 0 3.50464 0 7.83933V18.6607C0 22.9954 3.92814 26.5 8.78664 26.5H20.9156C25.7741 26.5 29.7023 22.9954 29.7023 18.6607V7.83933C29.6678 3.50464 25.7397 0 20.8812 0ZM27.945 18.6607C27.945 22.1346 24.7749 24.9629 20.8812 24.9629H8.78664C4.89295 24.9629 1.72287 22.1346 1.72287 18.6607V7.83933C1.72287 4.36543 4.89295 1.53712 8.78664 1.53712H20.9156C24.8093 1.53712 27.9794 4.36543 27.9794 7.83933V18.6607H27.945Z" fill="#0B3222"/>
</svg>
