<svg width="25" height="23" viewBox="0 0 25 23" fill="none" xmlns="http://www.w3.org/2000/svg">
<path d="M9.46594 1.85547L9.46494 4.01816" stroke="#CBAC9A" stroke-width="2" stroke-miterlimit="10" stroke-linecap="round" stroke-linejoin="round"/>
<path d="M10.5987 2.93562L8.33252 2.93457" stroke="#CBAC9A" stroke-width="2" stroke-miterlimit="10" stroke-linecap="round" stroke-linejoin="round"/>
<path d="M14.2892 17.5645L14.2882 19.7277" stroke="#CBAC9A" stroke-width="2" stroke-miterlimit="10" stroke-linecap="round" stroke-linejoin="round"/>
<path d="M15.422 18.6456L13.1558 18.6445" stroke="#CBAC9A" stroke-width="2" stroke-miterlimit="10" stroke-linecap="round" stroke-linejoin="round"/>
<path d="M7.71777 5.84473L7.71721 7.05202" stroke="#CBAC9A" stroke-miterlimit="10" stroke-linecap="round" stroke-linejoin="round"/>
<path d="M8.34994 6.44981L7.08569 6.44922" stroke="#CBAC9A" stroke-miterlimit="10" stroke-linecap="round" stroke-linejoin="round"/>
<path d="M16.84 14.4639L16.8394 15.6706" stroke="#CBAC9A" stroke-miterlimit="10" stroke-linecap="round" stroke-linejoin="round"/>
<path d="M17.4719 15.068L16.2076 15.0674" stroke="#CBAC9A" stroke-miterlimit="10" stroke-linecap="round" stroke-linejoin="round"/>
<path d="M20.9817 6.84643L16.8904 2.9375L2.51028 16.6512L6.60156 20.5601L20.9817 6.84643Z" stroke="#CBAC9A" stroke-width="2" stroke-miterlimit="10" stroke-linecap="round" stroke-linejoin="round"/>
<path d="M4.53743 18.6226L6.5784 20.5721L3.78892 21.2841L0.999971 21.9961L1.74849 19.3346L2.497 16.6726L4.53743 18.6226Z" stroke="#CBAC9A" stroke-width="2" stroke-miterlimit="10" stroke-linecap="round" stroke-linejoin="round"/>
<path d="M23.0052 4.91772L18.9139 1.00879L16.8899 2.93905L20.9812 6.84799L23.0052 4.91772Z" stroke="#CBAC9A" stroke-width="2" stroke-miterlimit="10" stroke-linecap="round" stroke-linejoin="round"/>
</svg>
