<svg width="15" height="25" viewBox="0 0 15 25" fill="none" xmlns="http://www.w3.org/2000/svg">
<path d="M9.66883 18.2016L13.86 11.4624C13.8737 11.4406 13.8852 11.4177 13.8941 11.3939C14.6179 10.2137 15 8.86543 15 7.48896C15 3.35955 11.6405 0 7.51104 0C3.38163 0 0.0218041 3.35955 0.0218041 7.48896C0.0218041 8.86571 0.404499 10.2145 1.12879 11.3956C1.13718 11.4163 1.14697 11.4364 1.15871 11.456L5.1995 18.2184C2.06275 18.6617 0 19.9515 0 21.5161C0 23.4548 3.29441 24.973 7.49986 24.973C11.7053 24.973 14.9997 23.4545 14.9997 21.5161C15 19.9443 12.8411 18.6257 9.66883 18.2016ZM1.8816 11.0179C1.2135 9.95453 0.860433 8.73432 0.860433 7.48896C0.860433 3.82191 3.84372 0.838629 7.51104 0.838629C11.1781 0.838629 14.1614 3.82191 14.1614 7.48896C14.1614 8.73488 13.8083 9.95508 13.1405 11.0179C13.1265 11.0403 13.115 11.0635 13.1058 11.0875L8.67785 18.2066C8.61132 18.3087 8.59818 18.3319 8.51684 18.4655L7.39866 20.2635L1.91906 11.0934C1.90928 11.0674 1.8967 11.0419 1.8816 11.0179ZM7.50014 24.1343C3.57452 24.1343 0.838908 22.7542 0.838908 21.5161C0.838908 20.3924 2.89914 19.3335 5.67025 19.0056L7.03163 21.2841C7.10682 21.4096 7.24156 21.4871 7.38776 21.4882C7.38888 21.4882 7.39028 21.4882 7.3914 21.4882C7.5362 21.4882 7.67094 21.4133 7.74753 21.2903L9.17879 18.9891C11.9941 19.2941 14.1611 20.3798 14.1611 21.5161C14.1614 22.7545 11.4258 24.1343 7.50014 24.1343Z" fill="white"/>
<path d="M10.2232 7.48865C10.2232 5.98723 9.00155 4.76562 7.50013 4.76562C5.9987 4.76562 4.7771 5.98723 4.7771 7.48865C4.7771 8.99008 5.9987 10.2117 7.50013 10.2117C9.00155 10.2117 10.2232 8.99008 10.2232 7.48865ZM5.61573 7.48865C5.61573 6.44959 6.46107 5.60425 7.50013 5.60425C8.53919 5.60425 9.38453 6.44959 9.38453 7.48865C9.38453 8.52771 8.53947 9.37305 7.50013 9.37305C6.46079 9.37305 5.61573 8.52771 5.61573 7.48865Z" fill="white"/>
</svg>
