<svg width="12" height="14" viewBox="0 0 12 14" fill="none" xmlns="http://www.w3.org/2000/svg">
<path d="M11.5893 10.1359L10.0947 8.37693C9.84772 8.08857 9.51423 7.91555 9.20544 7.91555C8.87196 7.91555 8.57552 8.07415 8.31614 8.37693L7.45155 9.3862C7.41449 9.35736 7.36509 9.32853 7.32803 9.31411C7.32803 9.31411 7.31568 9.31411 7.31568 9.29969L7.30333 9.28527C7.19217 9.19876 7.06865 9.11226 6.92044 9.04016C6.167 8.49228 5.46297 7.72812 4.74659 6.70443C4.4131 6.21421 4.17843 5.78167 3.99316 5.30587C4.19078 5.11843 4.339 4.931 4.45016 4.78682L4.83305 4.33986C5.12949 4.02266 5.2777 3.6622 5.2777 3.28733C5.2777 2.89804 5.12948 2.53759 4.8454 2.19156L3.67202 0.821833C3.56086 0.69207 3.4497 0.562307 3.32618 0.432544C3.07915 0.158599 2.77037 0 2.44923 0C2.09104 0 1.79461 0.144181 1.52288 0.46138L0.621227 1.5139C0.263037 1.90319 0.053063 2.39341 0.00365745 2.99897V3.01339C-0.0210453 3.76313 0.0777652 4.4552 0.349496 5.32029C0.781795 6.67559 1.43642 7.94439 2.41218 9.34294C3.68437 11.0154 5.11713 12.3131 6.71046 13.207L6.74752 13.2214C7.21687 13.4665 8.10617 13.9279 9.09428 14H9.23015C9.88477 14 10.3788 13.7549 10.7864 13.2358C10.9346 13.034 11.0952 12.8465 11.2311 12.6735C11.3422 12.5726 11.4163 12.4717 11.4905 12.3708L11.5893 12.2554L11.614 12.2266C12.1327 11.5633 12.1327 10.7559 11.5893 10.1359ZM11.157 11.7364L11.0335 11.8805L11.0211 11.9094C10.9593 11.9959 10.9099 12.068 10.8482 12.1256L10.8111 12.1689C10.6629 12.3419 10.49 12.5438 10.3171 12.7745C10.033 13.1349 9.71185 13.2935 9.23015 13.2935H9.13134C8.26674 13.2214 7.47625 12.8177 7.0069 12.5726L6.98219 12.5582C5.46297 11.7075 4.09197 10.4676 2.89388 8.88157C1.95518 7.5551 1.33761 6.34397 0.930012 5.07518C0.682984 4.28218 0.596524 3.70546 0.621227 3.05664C0.658281 2.63852 0.794147 2.3069 1.04117 2.04737L1.95518 0.980432C2.10339 0.807415 2.25161 0.735324 2.43688 0.735324C2.59745 0.735324 2.74567 0.821833 2.88153 0.966014L2.89388 0.980432C3.00505 1.09578 3.11621 1.22554 3.22737 1.3553L4.40075 2.72503C4.62308 2.98455 4.66013 3.18641 4.66013 3.30175C4.66013 3.4171 4.63543 3.59011 4.40075 3.83522L4.00551 4.2966C3.86964 4.46962 3.70907 4.65705 3.4991 4.85891L3.4744 4.88774L3.4497 4.931C3.33853 5.10402 3.32618 5.26262 3.38794 5.49331L3.40029 5.55098L3.41264 5.60865C3.62261 6.14212 3.88199 6.63234 4.25254 7.18023C5.01832 8.276 5.78411 9.09784 6.5993 9.68898L6.63635 9.71782C6.73517 9.77549 6.83398 9.83316 6.92044 9.89083C6.95749 9.93409 7.0069 9.96292 7.04395 9.97734C7.09336 10.0062 7.13041 10.0206 7.15511 10.0494L7.24157 10.1215H7.26628L7.30333 10.1359C7.37744 10.1648 7.42684 10.1648 7.4639 10.1648C7.58741 10.1648 7.69857 10.1071 7.80974 9.97734L8.73609 8.89598C8.88431 8.72297 9.02017 8.65088 9.19309 8.65088C9.37836 8.65088 9.55128 8.78064 9.65009 8.89598L11.157 10.655C11.4534 11.001 11.4657 11.3615 11.157 11.7364Z" fill="#CCAEA0"/>
</svg>
