<svg width="22" height="22" viewBox="0 0 22 22" fill="none" xmlns="http://www.w3.org/2000/svg">
<path fill-rule="evenodd" clip-rule="evenodd" d="M1.06168 6.59952C1.06168 6.59952 2.28409 8.86522 5.36455 13.1668C5.36455 13.1668 5.36455 13.1668 5.36455 13.1996C8.49391 17.5011 10.4987 19.4385 10.4987 19.4385C12.5523 20.9161 15.975 21.5728 19.6423 20.3907C21.647 19.734 21.3047 18.1907 19.4467 15.6295C17.7842 13.3309 15.9261 13.2653 14.7037 13.9877C14.4593 14.119 13.6769 14.6116 13.628 14.7757C13.628 14.7757 12.8946 15.5966 10.1075 11.6891C7.3204 7.81446 8.44502 8.01148 8.44502 8.01148C8.6406 8.04431 9.71632 8.14282 10.0097 8.07715C11.5744 7.8473 12.8457 6.73087 11.0365 4.23531C9.17846 1.67409 7.61378 0.524824 5.60904 1.18155C2.57747 2.1338 0.621619 4.59651 1.06168 6.59952Z" stroke="white" stroke-width="2"/>
</svg>
