<svg width="51" height="51" viewBox="0 0 51 51" fill="none" xmlns="http://www.w3.org/2000/svg">
<circle cx="25.5" cy="25.5" r="25" stroke="#241C10"/>
<path d="M35.8337 18.3368C35.6997 18.2273 35.5223 18.2329 35.393 18.3509C35.2232 18.5064 34.9468 18.6298 34.6493 18.7249C35.424 17.6766 35.4407 16.9766 35.4324 16.8155C35.4237 16.6493 35.3407 16.5018 35.2158 16.4309C35.0905 16.3595 34.9438 16.3769 34.8322 16.4746C33.9608 17.2395 33.0927 17.401 32.5765 17.4173C31.7841 16.5018 30.7549 16 29.66 16C27.3153 16 25.4079 18.3342 25.4079 21.2032C25.4079 21.4497 25.4221 21.6963 25.4506 21.9402C21.3872 21.8846 18.0875 17.183 18.0535 17.1339C17.9742 17.0195 17.8535 16.9583 17.7303 16.9715C17.6071 16.9844 17.4967 17.069 17.435 17.1984C16.2656 19.6482 17.0481 21.7998 17.7634 23.0317C17.6368 22.9503 17.5343 22.8699 17.4731 22.8155C17.3595 22.7133 17.2078 22.6963 17.0801 22.772C16.9526 22.8478 16.8711 23.0031 16.8687 23.1747C16.8371 25.5089 17.7676 26.8461 18.6423 27.5853C18.5258 27.5719 18.4073 27.6244 18.3264 27.7306C18.2355 27.8499 18.2035 28.0184 18.2427 28.1735C18.8469 30.5621 20.3308 31.3736 21.275 31.649C19.3336 33.4739 16.4768 32.8867 16.4452 32.88C16.2728 32.8432 16.1022 32.9527 16.032 33.1459C15.9618 33.339 16.0098 33.5652 16.1488 33.6931C18.198 35.5816 20.6488 36 22.4193 36C23.7584 35.9998 24.7087 35.7604 24.7996 35.7365C33.7673 33.1703 34.0197 23.2508 33.9992 21.6251C35.6827 19.7345 35.9458 19.0145 35.9865 18.8364C36.0294 18.6474 35.968 18.4466 35.8337 18.3368Z" fill="#241C10"/>
<path d="M33.3595 21.0948C33.2753 21.1886 33.2307 21.3236 33.2383 21.4617C33.2622 21.9006 33.7208 32.2446 24.6322 34.8454C24.591 34.8559 20.9783 35.7663 17.8463 33.8927C19.1695 33.8483 21.067 33.4297 22.3888 31.6375C22.4886 31.5025 22.5128 31.309 22.4507 31.1444C22.3894 30.9813 22.2545 30.8766 22.1063 30.8766C22.105 30.8766 22.1037 30.8766 22.1024 30.8766C22.0836 30.8911 20.0963 30.8739 19.1867 28.5911C19.5531 28.6161 20.0049 28.5889 20.3646 28.3887C20.5128 28.3062 20.6004 28.1183 20.5821 27.9224C20.5638 27.7267 20.4437 27.5672 20.2841 27.5265C20.1823 27.5007 17.9701 26.9033 17.6606 23.9891C17.9964 24.1662 18.4256 24.3113 18.8506 24.2329C18.9966 24.2064 19.1161 24.0797 19.1573 23.9085C19.1985 23.7374 19.1534 23.5526 19.042 23.4357C18.9474 23.3362 16.8698 21.1064 17.8548 18.231C18.9241 19.5858 22.0917 23.107 25.9291 22.8408C26.0417 22.833 26.1455 22.7648 26.2124 22.655C26.2791 22.5452 26.3018 22.4053 26.2743 22.2732C26.2017 21.9238 26.1647 21.5636 26.1647 21.2033C26.1647 18.8381 27.7327 16.9141 29.66 16.9141C30.6027 16.9141 31.487 17.3684 32.1496 18.1935C32.2193 18.2803 32.3148 18.3303 32.4148 18.3323C32.8157 18.339 33.4752 18.2821 34.2198 17.9215C34.0049 18.2444 33.6894 18.6317 33.225 19.0719C33.0938 19.1964 33.0456 19.4102 33.1064 19.5979C33.1674 19.786 33.3246 19.9047 33.4891 19.8868C33.5772 19.8783 34.0269 19.8304 34.5351 19.6976C34.2583 20.0582 33.8787 20.5181 33.3595 21.0948Z" fill="#FEFBF3"/>
</svg>
