<svg width="51" height="51" viewBox="0 0 51 51" fill="none" xmlns="http://www.w3.org/2000/svg">
<circle cx="25.5" cy="25.5" r="25" stroke="#241C10"/>
<path d="M17.3091 23.5333C17.283 25.4622 17.9225 26.7013 18.638 27.4819C18.7406 27.4273 18.8548 27.3935 18.9753 27.3863C18.3527 26.7967 17.7496 25.8583 17.5937 24.3898L17.503 23.536L17.3091 23.5333ZM17.3091 23.5333L17.503 23.5359M18.6649 28.2067C18.6441 28.2905 18.6436 28.3811 18.6654 28.4676L18.6649 28.2067ZM17.044 33.6447C17.0615 33.6471 17.0797 33.6495 17.0988 33.6519L17.0538 33.6534C17.0506 33.6505 17.0473 33.6476 17.044 33.6447ZM18.4607 23.2977C18.7245 23.7178 18.9651 23.9964 19.058 24.0986C18.8282 24.1069 18.5721 24.0256 18.3242 23.8948L18.0095 23.7287L18.4607 23.2977Z" fill="black" stroke="black"/>
</svg>
