<svg width="45" height="45" viewBox="0 0 45 45" fill="none" xmlns="http://www.w3.org/2000/svg">
<path fill-rule="evenodd" clip-rule="evenodd" d="M38.4455 6.54C34.2139 2.325 28.5882 0.001875 22.5951 0C10.2453 0 0.194055 10.0013 0.188403 22.2975C0.186519 26.2275 1.21897 30.0637 3.18024 33.4462L0 45L11.8769 41.8988C15.1495 43.6763 18.8346 44.6119 22.5838 44.6138H22.5933C34.9412 44.6138 44.9943 34.6106 45 22.3144C45.0038 16.3575 42.6751 10.7531 38.4455 6.54ZM22.5951 40.8469H22.5876C19.2453 40.8469 15.969 39.9525 13.1091 38.2631L12.4289 37.8619L5.38078 39.7012L7.26293 32.8612L6.82018 32.16C4.95499 29.2088 3.97153 25.7981 3.97341 22.2975C3.97718 12.0788 12.3328 3.765 22.6046 3.765C27.5784 3.765 32.2546 5.69625 35.7701 9.19875C39.2857 12.7031 41.2206 17.3587 41.2188 22.3106C41.2131 32.5331 32.8593 40.8469 22.5951 40.8469ZM32.8103 26.9662C32.2508 26.6869 29.4982 25.3388 28.9839 25.1531C28.4714 24.9675 28.0984 24.8737 27.7235 25.4306C27.3485 25.9875 26.2784 27.2437 25.9506 27.6169C25.6247 27.9881 25.2968 28.035 24.7373 27.7556C24.1777 27.4763 22.3728 26.8894 20.2345 24.99C18.5709 23.5125 17.4461 21.6881 17.1202 21.1294C16.7942 20.5706 17.0862 20.2706 17.3651 19.9931C17.6175 19.7437 17.9246 19.3425 18.2054 19.0163C18.488 18.6938 18.5803 18.4613 18.7687 18.0881C18.9552 17.7169 18.8629 17.3906 18.7216 17.1112C18.5803 16.8338 17.4612 14.0906 16.9958 12.975C16.5418 11.8875 16.0802 12.0356 15.7354 12.0187C15.4095 12.0019 15.0364 12 14.6615 12C14.2885 12 13.6818 12.1388 13.1694 12.6975C12.6569 13.2562 11.21 14.6044 11.21 17.3456C11.21 20.0888 13.2165 22.7381 13.4953 23.1094C13.7741 23.4806 17.4423 29.1094 23.0586 31.5225C24.3944 32.0962 25.4381 32.4394 26.2502 32.6963C27.5916 33.12 28.8124 33.06 29.7771 32.9175C30.8528 32.7581 33.0892 31.5694 33.5564 30.2681C34.0237 28.9669 34.0237 27.8494 33.8824 27.6187C33.7429 27.3844 33.3699 27.2456 32.8103 26.9662Z" fill="white"/>
</svg>
