<svg width="55" height="45" viewBox="0 0 55 45" fill="none" xmlns="http://www.w3.org/2000/svg">
<path d="M53.8496 7.02626C53.2171 4.261 51.354 2.08126 48.9867 1.34138C44.699 4.76837e-07 27.5 0 27.5 0C27.5 0 10.301 4.76837e-07 6.01104 1.34138C3.64604 2.08126 1.78292 4.25834 1.15042 7.02626C0 12.0405 0 22.5 0 22.5C0 22.5 0 32.9595 1.15042 37.9737C1.78292 40.739 3.64604 42.9187 6.01333 43.6586C10.301 45 27.5 45 27.5 45C27.5 45 44.699 45 48.989 43.6586C51.354 42.9187 53.2171 40.7417 53.8519 37.9737C55 32.9595 55 22.5 55 22.5C55 22.5 55 12.0405 53.8496 7.02626ZM21.8762 31.9988V13.0012L36.2496 22.5L21.8762 31.9988Z" fill="white"/>
</svg>
