<svg width="55" height="55" viewBox="0 0 55 55" fill="none" xmlns="http://www.w3.org/2000/svg">
<path d="M54.2183 8.79757H51.3574C51.3574 8.79757 50.0662 4.7929 49.6165 3.37813C48.7729 1.0221 48.3253 0 46.0812 0H32.6658C30.6445 0 29.9143 1.0221 29.1305 3.37813L28.4003 5.3386C29.5781 5.81212 30.8714 7.06809 30.8714 7.06809C30.8714 7.06809 31.319 5.81212 31.5417 5.26065C31.7109 4.78713 31.9893 4.39734 32.439 4.39734H46.2462C46.6938 4.39734 46.9764 4.79002 47.2012 5.26065C47.424 6.12395 48.2098 10.9948 48.2098 10.9948H32.4947L34.7388 19.7953H36.1971C37.711 19.7953 38.2185 20.4218 38.2185 22.5469V28.5986H44.3362V32.996H36.6467V35.199H48.8822V38.502C48.8822 39.1286 49.2205 39.6021 49.6681 39.6021H52.6981C53.1457 39.6021 53.484 39.1286 53.484 38.502V15.4037L52.8672 13.2007H54.2141C54.6617 13.2007 55 12.7272 55 12.1006V9.89763C55 9.27109 54.6617 8.79757 54.2141 8.79757H54.2183ZM51.9741 21.9954L50.4003 24.1984H47.3703V19.801L51.9741 17.3642V21.9954ZM36.6509 23.0954C36.6509 22.4689 36.3126 21.9954 35.9207 21.9954H33.0021L30.4753 12.1728C29.6317 9.65799 28.9614 8.79469 26.94 8.79469H9.70879C7.74311 8.79469 7.07069 9.65799 6.17345 12.1728L3.64673 21.9954H0.785862C0.338271 21.9954 0 22.4689 0 23.0954V25.2984C0 25.925 0.338271 26.3985 0.785862 26.3985H2.18639L1.51603 28.6015V53.8999C1.51603 54.5265 1.8543 55 2.30189 55H5.33189C5.77949 55 6.11776 54.5265 6.11776 53.8999V50.5969H30.5867V53.8999C30.5867 54.5265 30.925 55 31.3169 55H34.4046C34.7965 55 35.1348 54.5265 35.1348 53.8999V28.6015L34.5181 26.3985H35.9186C36.3105 26.3985 36.6488 25.925 36.6488 25.2984L36.6509 23.0954ZM8.58672 14.0582C8.80949 13.5847 9.03431 13.1949 9.54172 13.1949H27.1648C27.6124 13.1949 27.895 13.5876 28.0621 14.0582C28.3426 14.9215 29.9143 24.1955 29.9143 24.1955H6.79017C6.79017 24.1955 8.36396 14.9244 8.58672 14.0582ZM9.14982 37.3933H4.60379L3.08982 35.1903V30.5533L9.15188 32.9902V37.3933H9.14982ZM24.471 46.1909H12.2355V41.7935H24.471V46.1909ZM33.6188 35.1932L32.1048 37.3962H27.501V32.9988L33.6188 30.562V35.1932Z" fill="#F6C90E"/>
</svg>
